# xmcd
#
# Track frame offsets: 
#        150
#        27721
#        53695
#        79580
#        110881
#        136816
#        174276
#        212424
#        269202
#
# Disc length: 3693 seconds
#
# Revision: 0
# Processed by: cddbd v1.5.2PL0 Copyright (c) Steve Scherf et al.
# Submitted via: ExactAudioCopy v0.95a4
#
DISCID=7e0e6b09
DTITLE=Buddy Guy and Junior Wells - Shaboo Inn - Willimantic CT 4-5-19
DTITLE=73
DYEAR=1973
DGENRE=Blues
TTITLE0=Green Onions
TTITLE1=Stormy Monday
TTITLE2=Born Under a Bad Sign
TTITLE3=Band Intros - Too Hard to Handle
TTITLE4=The Thrill is Gone
TTITLE5=Locked Up in Love
TTITLE6=Boot Hill
TTITLE7=Help Me Baby
TTITLE8=Outro
EXTD=
EXTT0=
EXTT1=
EXTT2=
EXTT3=
EXTT4=
EXTT5=
EXTT6=
EXTT7=
EXTT8=
PLAYORDER=
